<?xml version="1.0" encoding="utf-8"?>

<!DOCTYPE svg PUBLIC "-//W3C//DTD SVG 1.1//EN" "http://www.w3.org/Graphics/SVG/1.1/DTD/svg11.dtd">
<svg version="1.1" id="Layer_1" xmlns="http://www.w3.org/2000/svg" xmlns:xlink="http://www.w3.org/1999/xlink" x="0px" y="0px"
	 viewBox="0 0 2053.4797 1784.0016" enable-background="new 0 0 2053.4797 1784.0016" xml:space="preserve">
<g>
	<polygon points="447.5284,1129.9917 565.7715,1194.0696 563.2934,1213.5408 447.5284,1153.7112 	"/>
	<polygon points="458.8571,1187.6971 543.8222,1241.1544 543.8222,1261.6876 458.8571,1213.5408 	"/>
	<path d="M439.7399,1093.8815l171.0539,81.6957c27.6857,184.6206,78.5834,348.3097,154.9999,488.9869
		c47.832,13.3224,96.4792,20.6354,145.8567,21.2413c-70.8042-292.4219-86.7815-591.6182-83.5491-891.426l-26.9055,13.4528
		l9.9126-353.3134l-134.5282,80.7169l-7.0804,338.4445l-82.1329,41.7746c2.0515,56.459,5.8279,111.3625,11.364,164.6791
		L386.9907,978.4705c-108.1049,36.3685-208.548,38.8914-281.093,14.1609c29.6595,155.0244,71.7982,276.8366,124.1083,371.5781
		c26.8656,48.6577,64.7734,90.3538,110.3298,122.1965c84.1537,58.8215,173.64,107.3936,271.1044,140.6318
		c-124.4584-189.4487-199.8555-397.5942-222.3254-625.91l211.7048,100.5421v-2.2241c2.188,19.415,4.6164,38.6133,7.284,57.5959
		l-168.3637-86.8796V1093.8815z"/>
	<path d="M875.5403,930.3236l20.5331,13.4528c8.2505,241.2435,25.8754,489.6528,52.3954,744.8611h-9.2047
		C908.8883,1466.6719,889.2495,1208.4967,875.5403,930.3236z"/>
	<path d="M939.9724,960.7694l24.0732,16.993c4.6398,263.6838,11.3444,508.5917,22.6576,711.5831l-8.4965-0.708
		C964.9597,1485.0564,952.3434,1232.4385,939.9724,960.7694z"/>
	<path d="M997.1467,994.7555l26.5516,13.2758l-2.6552,683.4384h-9.0275C1011.6866,1436.8981,1007.5076,1200.9098,997.1467,994.7555z
		"/>
	<path d="M1050.2499,1021.8381l21.7723,16.993l-22.8344,653.1696h-11.1517
		C1050.1705,1488.4775,1052.9673,1261.9493,1050.2499,1021.8381z"/>
	<path d="M1296.2108,982.8663l6.2795-157.5101L1154.3323,689.412l-67.441,36.1102l-4.7793-370.6605l-40.3584-43.5446
		l-3.1863-104.6133L961.5676,92.0008l-60.5377,43.5446l-8.4965,116.2961l-30.7999,22.3033l-13.8069,197.0129l60.5377,48.3239
		v317.0262l48.855,29.7378l10.0896-672.2867l-7.4344,9.5585l-8.4966-0.531l4.2483-88.6824l75.4067,116.8271l-1.0621,98.772
		l32.9241,32.3929l3.7173,556.5219l86.5581,44.6067l3.1863-238.9645l124.2615,112.5788l-3.1527,151.8584
		c-52.5111,16.8224-108.5221,33.3809-166.9547,49.7568c2.1185,224.7469-11.3906,441.9585-42.4824,650.6914
		c71.3962-0.4108,140.6687-6.9589,206.0404-24.7815c114.7406-229.7581,165.816-478.3341,177.7189-738.4887
		C1405.3771,945.4114,1352.9921,964.3046,1296.2108,982.8663z"/>
	<path d="M1490.4756,1032.9899l20.7103,11.6826c-23.7308,253.3013-96.0077,447.8655-192.7648,612.8112l-12.2137-2.1241
		C1410.0432,1463.0872,1471.6838,1255.7085,1490.4756,1032.9899z"/>
	<path d="M1550.3052,1064.4977l18.0551,11.6827c-22.9568,205.2098-91.6713,394.6277-203.2083,569.2666l-9.5586-5.6644
		C1511.4351,1380.5294,1527.4023,1225.087,1550.3052,1064.4977z"/>
	<path d="M1604.8246,1091.0493l18.0552,10.2667c-30.5024,195.3844-100.6885,371.5946-208.5188,529.616l-13.4526-3.1862
		C1503.614,1472.8843,1580.7874,1300.3533,1604.8246,1091.0493z"/>
	<path d="M1650.8473,1112.6447l17.347,7.0803c-32.8265,181.6335-103.5323,347.923-213.1207,498.4623l-13.8069-3.1862
		C1541.8087,1486.8453,1624.1814,1291.392,1650.8473,1112.6447z"/>
	<path d="M1688.7278,1126.4515l13.4526,8.1423c-34.6941,161.788-106.5604,331.7183-210.2888,468.0165h-7.4344
		C1581.6361,1472.345,1649.7057,1313.6051,1688.7278,1126.4515z"/>
	<path d="M1724.1298,1134.5939l12.7448,8.8506c-38.7825,168.7571-108.8217,313.6541-203.5624,439.6947l-10.2665-0.708
		C1614.5797,1464.2457,1681.042,1314.2487,1724.1298,1134.5939z"/>
	<path d="M1566.9442,1561.8978l20.1793-5.3103c97.868-119.1034,162.4138-288.9869,209.2267-485.8944l-74.3446-19.6482
		c31.1194-162.478,32.4552-333.3658,4.7793-512.4461c66.6606,98.9291,133.0842,188.0396,199.1371,261.7989
		c1.4227,251.8722-75.6425,468.2382-197.5439,664.3213l32.3929-24.4275c121.2091-196.9343,192.989-409.781,186.3923-647.8593
		c-63.7094-69.917-139.3135-168.5193-219.3163-277.7299c-69.5762,1.8654-138.4247,15.8157-206.5715,41.4205
		c14.7872,144.0975,16.0645,283.7716,3.7172,418.9844c85.1143,53.4219,167.4645,93.817,245.3369,113.1099
		C1736.2837,1265.7655,1663.8571,1420.962,1566.9442,1561.8978z"/>
	<polygon points="1781.8353,668.7017 1900.7865,813.1425 1900.7865,829.4275 1781.8353,693.1292 	"/>
	<polygon points="1786.0835,754.7289 1883.4395,861.6434 1883.4395,877.9284 1786.0835,775.9702 	"/>
	<polygon points="1786.0835,839.6941 1841.3109,894.9214 1841.3109,908.0203 1786.0835,864.8297 	"/>
	<polygon points="1781.8353,903.418 1798.1202,926.0754 1798.1202,941.6523 1781.8353,925.3673 	"/>
</g>
</svg>
